<?xml version="1.0" standalone="no"?>
<!DOCTYPE svg PUBLIC "-//W3C//DTD SVG 20010904//EN"
 "http://www.w3.org/TR/2001/REC-SVG-20010904/DTD/svg10.dtd">
<svg version="1.0" xmlns="http://www.w3.org/2000/svg"
 width="910.000000pt" height="910.000000pt" viewBox="0 0 910.000000 910.000000"
 preserveAspectRatio="xMidYMid meet">
<metadata>
Created by potrace 1.11, written by Peter Selinger 2001-2013
</metadata>
<g transform="translate(0.000000,910.000000) scale(0.100000,-0.100000)"
fill="#000000" stroke="none">
<path d="M4720 8893 c-250 -13 -363 -40 -470 -111 -67 -45 -64 -44 -439 -82
-168 -17 -233 -46 -271 -120 -22 -43 -28 -46 -118 -60 -99 -16 -203 -49 -239
-76 -17 -13 -39 -42 -49 -63 -19 -43 -34 -52 -122 -71 -57 -13 -151 -76 -199
-135 -19 -23 -58 -46 -122 -74 -99 -43 -111 -53 -141 -116 -24 -51 -55 -79
-102 -94 -47 -15 -92 -61 -106 -110 -14 -45 -44 -74 -94 -90 -44 -14 -94 -63
-103 -100 -12 -47 -47 -93 -84 -108 -56 -23 -89 -61 -132 -153 -25 -53 -52
-95 -74 -112 -59 -49 -104 -120 -122 -194 -28 -116 -43 -152 -67 -158 -12 -3
-38 -22 -58 -41 -38 -39 -72 -127 -84 -220 -9 -77 -33 -132 -58 -139 -38 -9
-92 -73 -110 -129 -9 -28 -26 -131 -37 -227 -25 -229 -25 -228 -69 -276 -120
-131 -135 -298 -127 -1378 7 -759 13 -882 55 -962 21 -40 74 -94 93 -94 19 0
30 -55 50 -244 27 -259 43 -304 124 -352 44 -25 65 -61 65 -112 0 -13 9 -64
21 -113 24 -103 59 -158 118 -185 42 -20 51 -35 71 -118 16 -70 30 -93 101
-166 46 -47 77 -92 114 -165 47 -94 53 -101 102 -125 59 -30 84 -57 104 -114
18 -50 59 -91 106 -106 51 -17 81 -46 105 -103 22 -51 52 -77 109 -96 43 -14
69 -40 98 -103 13 -28 36 -55 54 -66 41 -25 134 -57 215 -73 42 -9 62 -18 62
-28 0 -8 9 -33 20 -56 22 -45 70 -78 130 -90 74 -14 119 -37 128 -64 24 -68
118 -119 252 -136 85 -10 137 -33 148 -64 11 -29 41 -63 76 -86 35 -23 167
-45 301 -51 168 -7 229 -25 278 -80 44 -50 114 -77 247 -94 173 -23 800 -34
1189 -21 207 7 405 16 440 22 82 12 154 45 210 97 37 36 54 43 120 56 42 8
121 17 176 21 182 11 280 46 348 125 36 41 93 64 192 75 136 16 233 67 257
136 9 26 71 59 110 59 9 0 45 9 81 20 54 17 77 31 130 83 75 72 93 105 112
195 12 57 12 77 0 134 -18 87 -36 121 -100 184 -58 58 -78 99 -95 195 -17 92
-42 142 -102 202 -66 66 -74 85 -93 201 -28 173 -58 240 -128 285 -31 21 -40
35 -57 92 -15 48 -29 75 -51 93 -90 76 -287 49 -391 -55 -26 -26 -48 -52 -48
-57 0 -14 -68 -39 -149 -56 -90 -19 -123 -37 -187 -101 -58 -58 -106 -81 -186
-90 -294 -34 -407 -68 -473 -142 -31 -35 -120 -43 -490 -43 -396 0 -457 7
-502 54 -70 72 -207 117 -398 131 -114 8 -171 28 -183 64 -5 14 -22 39 -38 54
-36 36 -151 90 -226 107 -49 11 -58 17 -63 39 -15 69 -72 119 -152 134 -44 9
-83 35 -83 56 0 9 -12 40 -26 68 -24 50 -53 72 -126 96 -10 4 -20 19 -24 34
-22 104 -37 135 -90 198 -30 36 -63 69 -73 74 -17 10 -51 104 -71 203 -13 64
-55 133 -110 181 -53 45 -67 103 -74 307 -3 91 -13 282 -22 425 -10 165 -13
313 -9 405 13 319 35 612 51 701 16 88 20 96 56 128 21 18 45 45 52 60 21 41
74 202 81 246 9 56 25 95 40 95 23 0 90 57 107 91 9 19 30 64 46 101 24 52 48
84 115 149 49 47 93 100 104 123 22 50 66 94 124 123 68 33 166 109 191 148
24 35 98 76 167 90 43 9 107 67 121 109 l11 33 142 22 c218 34 359 67 431 100
36 17 71 31 79 31 7 0 42 11 77 25 90 35 254 36 350 2 246 -88 396 -124 575
-138 164 -13 220 -29 233 -68 24 -68 118 -119 252 -136 85 -10 137 -33 148
-64 15 -41 60 -80 137 -116 147 -68 218 -68 343 1 139 78 162 118 203 354 16
91 29 170 29 176 0 7 11 15 25 18 14 4 43 23 65 42 50 45 67 99 75 237 7 121
26 183 58 191 90 22 157 206 142 386 -16 202 -43 243 -189 289 -50 16 -109 32
-131 36 -33 6 -45 15 -70 53 -43 66 -98 91 -238 109 -161 20 -207 35 -234 77
-53 82 -130 111 -343 127 -203 15 -281 33 -324 74 -63 59 -246 102 -496 115
-151 8 -770 10 -900 3z"/>
</g>
</svg>
